<?xml version="1.0" encoding="utf-8"?><!DOCTYPE svg PUBLIC "-//W3C//DTD SVG 1.1//EN" "http://www.w3.org/Graphics/SVG/1.1/DTD/svg11.dtd"><svg version="1.1" xmlns="http://www.w3.org/2000/svg" xmlns:xlink="http://www.w3.org/1999/xlink" width="30.40625" height="32" viewBox="0 0 30.40625 32" data-code="61486" data-tags="search"><g fill="#444" transform="scale(0.03125 0.03125)"><path d="M960 832l-249.125-249.125c35.563-58.063 57.125-125.719 57.125-198.875 0-212.031-172-384-384-384-212.031 0-384 171.969-384 384 0 212 171.969 384 384 384 73.156 0 140.812-21.562 198.875-57l249.125 249c17.5 17.5 46.5 17.375 64 0l64-64c17.5-17.5 17.5-46.5 0-64zM384 640c-141.375 0-256-114.625-256-256s114.625-256 256-256 256 114.625 256 256-114.625 256-256 256z" /></g></svg>
